<?xml version="1.0" encoding="UTF-8" standalone="no"?>
<!-- Generator: Gravit.io -->

<svg
   xmlns:dc="http://purl.org/dc/elements/1.1/"
   xmlns:cc="http://creativecommons.org/ns#"
   xmlns:rdf="http://www.w3.org/1999/02/22-rdf-syntax-ns#"
   xmlns:svg="http://www.w3.org/2000/svg"
   xmlns="http://www.w3.org/2000/svg"
   xmlns:sodipodi="http://sodipodi.sourceforge.net/DTD/sodipodi-0.dtd"
   xmlns:inkscape="http://www.inkscape.org/namespaces/inkscape"
   style="isolation:isolate"
   viewBox="0 0 4204.183 760.902"
   width="4204.183"
   height="760.902"
   version="1.1"
   id="svg41"
   sodipodi:docname="103-db-mindbox.svg"
   inkscape:version="0.92.4 5da689c313, 2019-01-14">
  <metadata
     id="metadata45">
    <rdf:RDF>
      <cc:Work
         rdf:about="">
        <dc:format>image/svg+xml</dc:format>
        <dc:type
           rdf:resource="http://purl.org/dc/dcmitype/StillImage" />
      </cc:Work>
    </rdf:RDF>
  </metadata>
  <sodipodi:namedview
     pagecolor="#ffffff"
     bordercolor="#666666"
     borderopacity="1"
     objecttolerance="10"
     gridtolerance="10"
     guidetolerance="10"
     inkscape:pageopacity="0"
     inkscape:pageshadow="2"
     inkscape:window-width="1366"
     inkscape:window-height="708"
     id="namedview43"
     showgrid="false"
     inkscape:zoom="0.13320746"
     inkscape:cx="1704.8667"
     inkscape:cy="335.4404"
     inkscape:window-x="0"
     inkscape:window-y="31"
     inkscape:window-maximized="1"
     inkscape:current-layer="text27" />
  <defs
     id="defs5">
    <clipPath
       id="_clipPath_usG6YXPJMe34lUHVqzkA9SfxDXCjBOlO">
      <rect
         width="4204.183"
         height="760.902"
         id="rect2" />
    </clipPath>
  </defs>
  <g
     clip-path="url(#_clipPath_usG6YXPJMe34lUHVqzkA9SfxDXCjBOlO)"
     id="g39">
    <path
       transform="matrix(1,0,0,1,0,0)"
       style="fill:none"
       d="M 0,0 H 4204.1831 V 760.90198 H 0 Z"
       id="rect7" />
    <g
       id="Group">
      <g
         id="layer1" />
    </g>
    <path
       d=" M 778.9 586.334 L 67.555 586.334 L 67.555 99.158 L 778.9 99.158 L 778.9 586.334 Z "
       fill="none"
       id="path11" />
    <path
       d=" M 162.481 150.673 L 343.814 150.673 C 456.977 150.673 523.443 223.615 523.443 381.089 C 523.443 548.788 453.909 615.936 343.814 615.936 L 162.481 615.936 L 162.481 150.673 Z  M 574.23 150.673 L 777.038 150.673 C 861.91 150.673 904.517 201.8 904.517 260.768 C 904.517 338.141 859.183 364.387 824.076 371.886 L 824.076 373.931 C 876.567 380.748 923.945 417.901 923.945 489.139 C 923.605 565.831 868.045 615.936 764.426 615.936 L 574.23 615.936 L 574.23 150.673 Z  M 274.621 223.615 L 314.501 223.615 C 378.922 223.615 413.007 269.971 413.007 379.044 C 413.007 504.137 373.127 541.63 316.546 541.63 L 274.621 541.63 L 274.621 223.615 Z  M 685.349 222.933 L 728.296 222.933 C 772.266 222.933 790.331 247.475 790.331 276.106 C 790.331 310.873 771.584 335.074 727.614 335.074 L 685.349 335.074 L 685.349 222.933 Z  M 685.349 422.673 L 738.181 422.673 C 790.331 422.673 804.306 447.896 804.306 480.959 C 804.306 519.475 776.356 541.63 738.862 541.63 L 685.349 541.63 L 685.349 422.673 Z  M 126.009 25.239 L 945.76 25.239 C 1004.046 25.239 1051.424 72.276 1051.424 130.562 L 1051.424 633.661 C 1051.424 691.947 1004.046 739.325 945.76 739.325 L 126.009 739.325 C 67.723 739.325 20.686 691.947 20.686 633.661 L 20.686 130.562 C 20.686 72.276 67.723 25.239 126.009 25.239 Z  M 127.373 97.159 L 944.737 97.159 C 962.802 97.159 977.459 111.815 977.459 129.88 L 977.459 634.342 C 977.459 652.408 962.802 667.064 944.737 667.064 L 127.373 667.064 C 109.308 667.064 94.651 652.408 94.651 634.342 L 94.651 129.88 C 94.651 111.815 109.308 97.159 127.373 97.159 Z "
       fill-rule="evenodd"
       fill="rgb(236,27,45)"
       id="path13" />
    <g
       id="g25">
      <g
         id="g23">
        <g
           id="g21">
          <g
             id="g10">
            <g
               id="g12">
              <path
                 d=" M 2373.602 526.334 L 2292.397 526.334 L 2292.397 339.028 C 2292.397 298.384 2263.213 270.06 2222.828 270.06 L 2080.77 270.06 L 2080.77 526.334 L 1999.58 526.334 L 1999.58 229.132 C 1999.58 206.456 2018 188.857 2040.487 188.857 L 2223.453 188.857 C 2310.106 188.857 2373.602 252.037 2373.602 339.028 L 2373.602 526.334 Z  M 3619.919 303.086 C 3619.919 281.241 3609.024 270.06 3587.096 270.06 L 3441.319 270.06 C 3420.008 270.06 3408.292 280.926 3408.292 302.461 L 3408.292 412.445 C 3408.292 433.923 3419.95 445.131 3441.319 445.131 L 3587.096 445.131 C 3608.741 445.131 3619.919 434.151 3619.919 412.445 L 3619.919 303.086 L 3619.919 303.086 Z  M 3701.124 412.445 C 3701.124 478.469 3652.946 526.334 3587.096 526.334 L 3440.687 526.334 C 3375.171 526.334 3327.087 478.327 3327.087 412.445 L 3327.087 302.461 C 3327.087 236.747 3375.425 188.857 3440.687 188.857 L 3587.096 188.857 C 3653.236 188.857 3701.124 236.662 3701.124 302.461 L 3701.124 412.445 L 3701.124 412.445 Z  M 4144.389 188.857 L 3998.503 348.07 L 4162.729 526.334 L 4051.032 526.334 L 3942.996 408.7 L 3834.953 526.334 L 3722.943 526.334 L 3886.835 347.446 L 3741.596 188.857 L 3852.748 188.857 L 3942.364 286.575 L 4032.612 188.857 L 4144.389 188.857 Z  M 1483.797 526.334 L 1564.994 526.334 L 1564.994 339.028 C 1564.994 298.816 1593.697 270.06 1634.573 270.06 L 1683.641 270.06 L 1683.641 526.334 L 1764.829 526.334 L 1764.829 229.132 C 1764.829 206.456 1746.401 188.857 1723.913 188.857 L 1633.94 188.857 C 1589.54 188.857 1551.211 205.489 1524.399 233.354 C 1497.589 205.489 1459.255 188.857 1414.846 188.857 L 1324.873 188.857 C 1302.391 188.857 1283.965 206.456 1283.965 229.132 L 1283.965 526.334 L 1365.154 526.334 L 1365.154 270.06 L 1414.21 270.06 C 1455.098 270.06 1483.797 298.816 1483.797 339.028 L 1483.797 526.334 Z  M 1921.895 526.334 L 1840.698 526.334 L 1840.698 188.857 L 1921.895 188.857 L 1921.895 526.334 L 1921.895 526.334 Z "
                 fill-rule="evenodd"
                 fill="rgb(22,22,22)"
                 id="path15" />
              <path
                 d=" M 2555.377 270.06 C 2533.993 270.06 2522.248 280.784 2522.248 302.461 L 2522.248 411.793 C 2522.248 433.286 2532.955 445.131 2554.745 445.131 L 2701.154 445.131 C 2722.777 445.131 2733.876 434.066 2733.876 412.445 L 2733.876 270.06 C 2674.374 270.06 2614.879 270.06 2555.377 270.06 Z  M 2815.081 412.445 C 2815.081 478.384 2766.997 526.334 2701.154 526.334 L 2554.745 526.334 C 2489.265 526.334 2441.051 477.816 2441.051 412.445 L 2441.051 302.461 C 2441.051 236.69 2489.454 188.857 2554.745 188.857 C 2614.458 188.857 2674.156 188.857 2733.876 188.857 L 2733.876 92.682 L 2815.081 92.682 L 2815.081 412.445 L 2815.081 412.445 Z  M 2971.811 270.06 L 2971.811 412.445 C 2971.811 431.952 2985.045 445.131 3004.525 445.131 L 3150.927 445.131 C 3171.01 445.131 3183.445 432.434 3183.445 412.445 L 3183.445 302.461 C 3183.445 282.555 3170.785 270.06 3150.927 270.06 C 3091.229 270.06 3031.509 270.06 2971.811 270.06 Z  M 3264.643 412.445 C 3264.643 477.873 3216.588 526.334 3150.927 526.334 L 3004.525 526.334 C 2938.9 526.334 2890.606 478.27 2890.606 412.445 L 2890.606 92.682 L 2971.811 92.682 L 2971.811 188.857 C 3031.509 188.857 3091.229 188.857 3150.927 188.857 C 3216.392 188.857 3264.643 236.861 3264.643 302.461 L 3264.643 412.445 L 3264.643 412.445 Z "
                 fill-rule="evenodd"
                 fill="rgb(237,28,36)"
                 id="path17" />
            </g>
          </g>
        </g>
      </g>
    </g>
    <g
       transform="matrix(1,0,0,1,1283.965,550.334)"
       id="g37">
      <g
         aria-label="STARTUPS"
         transform="matrix(1,0,0,1,150.347,160.327)"
         style="font-style:normal;font-weight:600;font-size:150px;font-family:'Open Sans';fill:#000000;stroke:none"
         id="text27">
        <path
           d="m 75.878906,-29.077148 q 0,14.282226 -10.327148,22.4121089 -10.327149,8.1298828 -28.491211,8.1298828 -18.164063,0 -29.7363283,-5.6396484 V -20.727539 q 7.3242193,3.442383 15.5273433,5.419922 8.276368,1.977539 15.38086,1.977539 10.40039,0 15.307617,-3.955078 4.980469,-3.955078 4.980469,-10.620117 0,-6.00586 -4.541016,-10.180664 -4.541015,-4.174805 -18.75,-9.887696 -14.648437,-5.932617 -20.654297,-13.549804 -6.0058591,-7.617188 -6.0058591,-18.310547 0,-13.403321 9.5214841,-21.093746 9.521485,-7.69043 25.561524,-7.69043 15.380859,0 30.615234,6.73828 l -5.566406,14.282224 q -14.282227,-6.00586 -25.488281,-6.00586 -8.496094,0 -12.890625,3.735352 -4.394532,3.662109 -4.394532,9.741211 0,4.174805 1.757813,7.177734 1.757812,2.929688 5.786133,5.566407 4.02832,2.636718 14.501953,6.958007 11.791992,4.907227 17.285156,9.155274 5.493164,4.248047 8.056641,9.594726 2.563476,5.34668 2.563476,12.597657 z"
           style="font-style:normal;font-weight:600;font-size:150px;font-family:'Open Sans';fill:#000000;stroke:none"
           id="path872" />
        <path
           d="M 133.74023,0 H 116.23535 V -92.06543 H 84.741211 v -15.01465 h 80.493159 v 15.01465 h -31.49414 z"
           style="font-style:normal;font-weight:600;font-size:150px;font-family:'Open Sans';fill:#000000;stroke:none"
           id="path874" />
        <path
           d="M 248.14453,0 237.45117,-29.736328 H 196.50879 L 186.03516,0 h -18.45704 l 40.06348,-107.51953 h 19.04297 L 266.74805,0 Z m -15.30762,-44.824219 -10.03418,-29.15039 q -1.09863,-2.929688 -3.07617,-9.228516 -1.90429,-6.298828 -2.63672,-9.228516 -1.97754,9.008789 -5.78613,19.702149 l -9.66797,27.905273 z"
           style="font-style:normal;font-weight:600;font-size:150px;font-family:'Open Sans';fill:#000000;stroke:none"
           id="path876" />
        <path
           d="m 298.53516,-57.275391 h 12.1582 q 12.23144,0 17.72461,-4.541015 5.49316,-4.541016 5.49316,-13.476563 0,-9.082031 -5.93261,-13.037109 -5.93262,-3.955078 -17.8711,-3.955078 h -11.57226 z m 0,14.501954 V 0 h -17.50489 v -107.08008 h 30.24903 q 20.72754,0 30.68847,7.763674 9.96094,7.763672 9.96094,23.4375 0,19.995117 -20.80078,28.491211 L 361.37695,0 h -19.92187 l -25.63477,-42.773437 z"
           style="font-style:normal;font-weight:600;font-size:150px;font-family:'Open Sans';fill:#000000;stroke:none"
           id="path878" />
        <path
           d="m 413.81836,0 h -17.50488 v -92.06543 h -31.49414 v -15.01465 h 80.49316 v 15.01465 h -31.49414 z"
           style="font-style:normal;font-weight:600;font-size:150px;font-family:'Open Sans';fill:#000000;stroke:none"
           id="path880" />
        <path
           d="m 545.72754,-107.08008 v 69.287111 q 0,11.865235 -5.12695,20.800782 -5.05372,8.8623042 -14.72168,13.6962886 -9.59473,4.7607421 -22.99805,4.7607421 -19.92188,0 -30.98145,-10.546875 -11.05957,-10.5468747 -11.05957,-29.0039057 v -68.994143 h 17.57813 v 67.749025 q 0,13.256836 6.15234,19.555664 6.15235,6.298828 18.89649,6.298828 24.75586,0 24.75586,-26.000976 v -67.602541 z"
           style="font-style:normal;font-weight:600;font-size:150px;font-family:'Open Sans';fill:#000000;stroke:none"
           id="path882" />
        <path
           d="m 644.01855,-74.707031 q 0,16.772461 -10.98632,25.708008 -10.98633,8.935546 -31.27442,8.935546 H 590.625 V 0 h -17.50488 v -107.08008 h 30.83496 q 20.06836,0 30.02929,8.203127 10.03418,8.203125 10.03418,24.169922 z M 590.625,-54.785156 h 9.30176 q 13.47656,0 19.77539,-4.6875 6.29883,-4.6875 6.29883,-14.648438 0,-9.228515 -5.63965,-13.769531 -5.63965,-4.541016 -17.57813,-4.541016 H 590.625 Z"
           style="font-style:normal;font-weight:600;font-size:150px;font-family:'Open Sans';fill:#000000;stroke:none"
           id="path884" />
        <path
           d="m 727.14844,-29.077148 q 0,14.282226 -10.32715,22.4121089 -10.32715,8.1298828 -28.49121,8.1298828 -18.16406,0 -29.73633,-5.6396484 V -20.727539 q 7.32422,3.442383 15.52734,5.419922 8.27637,1.977539 15.38086,1.977539 10.40039,0 15.30762,-3.955078 4.98047,-3.955078 4.98047,-10.620117 0,-6.00586 -4.54102,-10.180664 -4.54101,-4.174805 -18.75,-9.887696 -14.64843,-5.932617 -20.65429,-13.549804 -6.00586,-7.617188 -6.00586,-18.310547 0,-13.403321 9.52148,-21.093746 9.52149,-7.69043 25.56152,-7.69043 15.38086,0 30.61524,6.73828 l -5.56641,14.282224 q -14.28222,-6.00586 -25.48828,-6.00586 -8.49609,0 -12.89062,3.735352 -4.39453,3.662109 -4.39453,9.741211 0,4.174805 1.75781,7.177734 1.75781,2.929688 5.78613,5.566407 4.02832,2.636718 14.50195,6.958007 11.792,4.907227 17.28516,9.155274 5.49316,4.248047 8.05664,9.594726 2.56348,5.34668 2.56348,12.597657 z"
           style="font-style:normal;font-weight:600;font-size:150px;font-family:'Open Sans';fill:#000000;stroke:none"
           id="path886" />
      </g>
      <g
         aria-label="::"
         transform="matrix(1,0,0,1,922.686,160.327)"
         style="font-style:normal;font-weight:600;font-size:150px;font-family:'Open Sans';fill:#ec1b2d;stroke:none"
         id="text29">
        <path
           d="m 9.7412109,-9.1552734 q 0,-5.3466796 2.7832031,-8.2031246 2.783203,-2.856446 8.056641,-2.856446 5.346679,0 8.129882,3.00293 2.783204,2.929687 2.783204,8.0566406 0,5.2001953 -2.856446,8.27636715 -2.783203,3.00292965 -8.05664,3.00292965 -5.273438,0 -8.056641,-3.00292965 Q 9.7412109,-3.8818359 9.7412109,-9.1552734 Z m 0,-62.5488286 q 0,-11.05957 10.8398441,-11.05957 5.493164,0 8.203125,2.929688 2.709961,2.929687 2.709961,8.129882 0,5.200196 -2.856446,8.276368 -2.783203,3.002929 -8.05664,3.002929 -5.273438,0 -8.056641,-3.002929 -2.7832031,-3.00293 -2.7832031,-8.276368 z"
           style="font-style:normal;font-weight:600;font-size:150px;font-family:'Open Sans';fill:#ec1b2d;stroke:none"
           id="path889" />
        <path
           d="m 51.049805,-9.1552734 q 0,-5.3466796 2.783203,-8.2031246 2.783203,-2.856446 8.05664,-2.856446 5.34668,0 8.129883,3.00293 2.783203,2.929687 2.783203,8.0566406 0,5.2001953 -2.856445,8.27636715 -2.783203,3.00292965 -8.056641,3.00292965 -5.273437,0 -8.05664,-3.00292965 -2.783203,-3.00292965 -2.783203,-8.27636715 z m 0,-62.5488286 q 0,-11.05957 10.839843,-11.05957 5.493164,0 8.203125,2.929688 2.709961,2.929687 2.709961,8.129882 0,5.200196 -2.856445,8.276368 -2.783203,3.002929 -8.056641,3.002929 -5.273437,0 -8.05664,-3.002929 -2.783203,-3.00293 -2.783203,-8.276368 z"
           style="font-style:normal;font-weight:600;font-size:150px;font-family:'Open Sans';fill:#ec1b2d;stroke:none"
           id="path891" />
      </g>
      <g
         aria-label="HACKS"
         transform="matrix(1,0,0,1,1044.121,160.327)"
         style="font-style:normal;font-weight:600;font-size:150px;font-family:'Open Sans';fill:#000000;stroke:none"
         id="text31">
        <path
           d="M 98.583984,0 H 81.005859 V -48.266602 H 31.640625 V 0 H 14.135742 v -107.08008 h 17.504883 v 43.79883 h 49.365234 v -43.79883 h 17.578125 z"
           style="font-style:normal;font-weight:600;font-size:150px;font-family:'Open Sans';fill:#000000;stroke:none"
           id="path894" />
        <path
           d="M 193.35937,0 182.66602,-29.736328 H 141.72363 L 131.25,0 h -18.45703 l 40.06348,-107.51953 h 19.04296 L 211.96289,0 Z m -15.30761,-44.824219 -10.03418,-29.15039 q -1.09863,-2.929688 -3.07617,-9.228516 -1.9043,-6.298828 -2.63672,-9.228516 -1.97754,9.008789 -5.78614,19.702149 l -9.66796,27.905273 z"
           style="font-style:normal;font-weight:600;font-size:150px;font-family:'Open Sans';fill:#000000;stroke:none"
           id="path896" />
        <path
           d="m 271.80176,-93.603516 q -15.08789,0 -23.73047,10.69336 -8.64258,10.693359 -8.64258,29.516601 0,19.702149 8.27637,29.809571 8.34961,10.107421 24.09668,10.107421 6.81152,0 13.18359,-1.318359 6.37207,-1.391601 13.25684,-3.515625 v 15.0146486 q -12.59766,4.7607421 -28.56446,4.7607421 -23.51074,0 -36.10839,-14.2089847 -12.59766,-14.282226 -12.59766,-40.795898 0,-16.699219 6.0791,-29.223633 6.15234,-12.524414 17.72461,-19.189458 11.57227,-6.66503 27.17285,-6.66503 16.40625,0 30.32227,6.88476 l -6.29883,14.575197 q -5.41992,-2.563477 -11.49902,-4.467774 -6.00586,-1.977539 -12.6709,-1.977539 z"
           style="font-style:normal;font-weight:600;font-size:150px;font-family:'Open Sans';fill:#000000;stroke:none"
           id="path898" />
        <path
           d="m 403.19824,0 h -20.28808 l -33.61817,-48.486328 -10.32715,8.422851 V 0 h -17.50488 v -107.08008 h 17.50488 v 51.123049 q 7.17774,-8.789063 14.28223,-16.918946 l 28.93066,-34.204103 h 19.92188 q -28.05176,32.958986 -40.20996,46.948244 z"
           style="font-style:normal;font-weight:600;font-size:150px;font-family:'Open Sans';fill:#000000;stroke:none"
           id="path900" />
        <path
           d="m 479.00391,-29.077148 q 0,14.282226 -10.32715,22.4121089 -10.32715,8.1298828 -28.49121,8.1298828 -18.16407,0 -29.73633,-5.6396484 V -20.727539 q 7.32422,3.442383 15.52734,5.419922 8.27637,1.977539 15.38086,1.977539 10.40039,0 15.30762,-3.955078 4.98047,-3.955078 4.98047,-10.620117 0,-6.00586 -4.54102,-10.180664 -4.54101,-4.174805 -18.75,-9.887696 -14.64844,-5.932617 -20.65429,-13.549804 -6.00586,-7.617188 -6.00586,-18.310547 0,-13.403321 9.52148,-21.093746 9.52148,-7.69043 25.56152,-7.69043 15.38086,0 30.61524,6.73828 l -5.56641,14.282224 q -14.28222,-6.00586 -25.48828,-6.00586 -8.49609,0 -12.89062,3.735352 -4.39454,3.662109 -4.39454,9.741211 0,4.174805 1.75782,7.177734 1.75781,2.929688 5.78613,5.566407 4.02832,2.636718 14.50195,6.958007 11.79199,4.907227 17.28516,9.155274 5.49316,4.248047 8.05664,9.594726 2.56348,5.34668 2.56348,12.597657 z"
           style="font-style:normal;font-weight:600;font-size:150px;font-family:'Open Sans';fill:#000000;stroke:none"
           id="path902" />
      </g>
      <g
         aria-label="::"
         transform="matrix(1,0,0,1,1568.316,160.327)"
         style="font-style:normal;font-weight:600;font-size:150px;font-family:'Open Sans';fill:#ec1b2d;stroke:none"
         id="text33">
        <path
           d="m 9.7412109,-9.1552734 q 0,-5.3466796 2.7832031,-8.2031246 2.783203,-2.856446 8.056641,-2.856446 5.346679,0 8.129882,3.00293 2.783204,2.929687 2.783204,8.0566406 0,5.2001953 -2.856446,8.27636715 -2.783203,3.00292965 -8.05664,3.00292965 -5.273438,0 -8.056641,-3.00292965 Q 9.7412109,-3.8818359 9.7412109,-9.1552734 Z m 0,-62.5488286 q 0,-11.05957 10.8398441,-11.05957 5.493164,0 8.203125,2.929688 2.709961,2.929687 2.709961,8.129882 0,5.200196 -2.856446,8.276368 -2.783203,3.002929 -8.05664,3.002929 -5.273438,0 -8.056641,-3.002929 -2.7832031,-3.00293 -2.7832031,-8.276368 z"
           style="font-style:normal;font-weight:600;font-size:150px;font-family:'Open Sans';fill:#ec1b2d;stroke:none"
           id="path905" />
        <path
           d="m 51.049805,-9.1552734 q 0,-5.3466796 2.783203,-8.2031246 2.783203,-2.856446 8.05664,-2.856446 5.34668,0 8.129883,3.00293 2.783203,2.929687 2.783203,8.0566406 0,5.2001953 -2.856445,8.27636715 -2.783203,3.00292965 -8.056641,3.00292965 -5.273437,0 -8.05664,-3.00292965 -2.783203,-3.00292965 -2.783203,-8.27636715 z m 0,-62.5488286 q 0,-11.05957 10.839843,-11.05957 5.493164,0 8.203125,2.929688 2.709961,2.929687 2.709961,8.129882 0,5.200196 -2.856445,8.276368 -2.783203,3.002929 -8.056641,3.002929 -5.273437,0 -8.05664,-3.002929 -2.783203,-3.00293 -2.783203,-8.276368 z"
           style="font-style:normal;font-weight:600;font-size:150px;font-family:'Open Sans';fill:#ec1b2d;stroke:none"
           id="path907" />
      </g>
      <g
         aria-label="NETWORKING"
         transform="matrix(1,0,0,1,1689.751,160.327)"
         style="font-style:normal;font-weight:600;font-size:150px;font-family:'Open Sans';fill:#000000;stroke:none"
         id="text35">
        <path
           d="M 103.34473,0 H 81.884766 L 29.223633,-85.327148 h -0.585938 l 0.366211,4.760742 q 1.025391,13.623047 1.025391,24.902344 V 0 H 14.135742 v -107.08008 h 21.240235 l 52.514648,84.887697 h 0.439453 q -0.146484,-1.68457 -0.585937,-12.231445 -0.439454,-10.620117 -0.439454,-16.552734 v -56.103518 h 16.040043 z"
           style="font-style:normal;font-weight:600;font-size:150px;font-family:'Open Sans';fill:#000000;stroke:none"
           id="path910" />
        <path
           d="m 192.1875,0 h -60.57129 v -107.08008 h 60.57129 v 14.794924 h -43.06641 v 29.15039 h 40.35645 v 14.648438 h -40.35645 v 33.618164 h 43.06641 z"
           style="font-style:normal;font-weight:600;font-size:150px;font-family:'Open Sans';fill:#000000;stroke:none"
           id="path912" />
        <path
           d="M 252.39258,0 H 234.8877 v -92.06543 h -31.49415 v -15.01465 h 80.49317 v 15.01465 h -31.49414 z"
           style="font-style:normal;font-weight:600;font-size:150px;font-family:'Open Sans';fill:#000000;stroke:none"
           id="path914" />
        <path
           d="m 399.16992,0 h -19.04297 l -18.16406,-63.867187 q -1.17187,-4.174805 -2.92969,-12.011719 -1.75781,-7.910156 -2.12402,-10.986328 -0.73242,4.6875 -2.41699,12.158203 -1.61133,7.470703 -2.70996,11.132812 L 334.05762,0 h -19.04297 l -13.84278,-53.613281 -14.0625,-53.466799 h 17.8711 l 15.30762,62.402346 q 3.58886,15.014648 5.12695,26.513672 0.80566,-6.225586 2.41699,-13.916016 1.61133,-7.69043 2.92969,-12.451172 l 17.43164,-62.54883 h 17.3584 l 17.87109,62.841799 q 2.56348,8.71582 5.41992,26.074219 1.09864,-10.473633 5.27344,-26.660157 l 15.23438,-62.255861 h 17.72461 z"
           style="font-style:normal;font-weight:600;font-size:150px;font-family:'Open Sans';fill:#000000;stroke:none"
           id="path916" />
        <path
           d="m 537.23145,-53.686523 q 0,26.147461 -13.11036,40.649414 -13.03711,14.5019527 -36.9873,14.5019527 -24.24317,0 -37.28027,-14.3554687 -12.96387,-14.428711 -12.96387,-40.942383 0,-26.513672 13.03711,-40.722656 13.11035,-14.208986 37.35351,-14.208986 23.87696,0 36.91407,14.428713 13.03711,14.42871 13.03711,40.649414 z m -81.73829,0 q 0,19.77539 7.9834,30.029296 7.9834,10.180664 23.65723,10.180664 15.60058,0 23.51074,-10.107421 7.9834,-10.107422 7.9834,-30.102539 0,-19.702149 -7.91016,-29.882813 Q 502.88086,-93.75 487.28027,-93.75 q -15.74707,0 -23.80371,10.180664 -7.9834,10.180664 -7.9834,29.882813 z"
           style="font-style:normal;font-weight:600;font-size:150px;font-family:'Open Sans';fill:#000000;stroke:none"
           id="path918" />
        <path
           d="m 577.73437,-57.275391 h 12.15821 q 12.23144,0 17.72461,-4.541015 5.49316,-4.541016 5.49316,-13.476563 0,-9.082031 -5.93262,-13.037109 -5.93261,-3.955078 -17.87109,-3.955078 h -11.57227 z m 0,14.501954 V 0 h -17.50488 v -107.08008 h 30.24903 q 20.72753,0 30.68847,7.763674 9.96094,7.763672 9.96094,23.4375 0,19.995117 -20.80078,28.491211 L 640.57617,0 H 620.6543 l -25.63477,-42.773437 z"
           style="font-style:normal;font-weight:600;font-size:150px;font-family:'Open Sans';fill:#000000;stroke:none"
           id="path920" />
        <path
           d="m 737.76855,0 h -20.28808 l -33.61817,-48.486328 -10.32714,8.422851 V 0 h -17.50489 v -107.08008 h 17.50489 v 51.123049 q 7.17773,-8.789063 14.28222,-16.918946 l 28.93067,-34.204103 h 19.92187 q -28.05176,32.958986 -40.20996,46.948244 z"
           style="font-style:normal;font-weight:600;font-size:150px;font-family:'Open Sans';fill:#000000;stroke:none"
           id="path922" />
        <path
           d="m 751.83105,0 v -107.08008 h 17.50489 V 0 Z"
           style="font-style:normal;font-weight:600;font-size:150px;font-family:'Open Sans';fill:#000000;stroke:none"
           id="path924" />
        <path
           d="M 886.74316,0 H 865.2832 l -52.66113,-85.327148 h -0.58594 l 0.36621,4.760742 q 1.02539,13.623047 1.02539,24.902344 V 0 h -15.89355 v -107.08008 h 21.24023 l 52.51465,84.887697 h 0.43946 q -0.14649,-1.68457 -0.58594,-12.231445 -0.43946,-10.620117 -0.43946,-16.552734 v -56.103518 h 16.04004 z"
           style="font-style:normal;font-weight:600;font-size:150px;font-family:'Open Sans';fill:#000000;stroke:none"
           id="path926" />
        <path
           d="m 958.81348,-58.081055 h 39.40429 v 53.7597659 q -9.66797,3.1494141 -18.60351,4.46777347 -8.86231,1.31835933 -19.18946,1.31835933 -24.3164,0 -37.5,-14.3554687 -13.18359,-14.428711 -13.18359,-40.649414 0,-25.854492 14.86816,-40.429688 14.86817,-14.648433 40.94239,-14.648433 16.77246,0 31.78711,6.44531 l -6.15235,14.575194 q -13.03711,-6.00586 -26.07422,-6.00586 -17.13867,0 -27.0996,10.766602 -9.96094,10.766602 -9.96094,29.443359 0,19.628907 8.93554,29.882813 9.00879,10.180664 25.8545,10.180664 8.49609,0 18.16406,-2.124024 v -27.612304 h -22.19238 z"
           style="font-style:normal;font-weight:600;font-size:150px;font-family:'Open Sans';fill:#000000;stroke:none"
           id="path928" />
      </g>
    </g>
  </g>
</svg>
