<svg width="172" height="43" viewBox="0 0 172 43" fill="none" xmlns="http://www.w3.org/2000/svg">
<path d="M166.066 7.47873L162.705 16.3291C162.499 16.877 162.105 17.3339 161.594 17.6179C161.082 17.9019 160.486 17.9947 159.913 17.8794L157.338 17.3588C156.882 17.2683 156.461 17.0505 156.123 16.7309C155.786 16.4112 155.546 16.0026 155.431 15.5523L154 10.2362L149.84 10.2362C148.915 9.86697 148.123 9.22486 147.571 8.39513L145.46 5.14502" stroke="#02EB76" stroke-width="3.5" stroke-linecap="round" stroke-linejoin="round"/>
<path d="M164.957 27.303L162.797 25.6985C162.161 25.2262 161.5 25.2394 160 25C158 24.6809 156 26 156 26" stroke="#02EB76" stroke-width="3.5" stroke-linecap="round" stroke-linejoin="round"/>
<path d="M140 14.3208C140.451 11.6464 141.63 9.1478 143.407 7.0985C145.183 5.0492 147.489 3.52827 150.073 2.70222C152.656 1.87616 155.417 1.77686 158.053 2.41515C160.689 3.05347 163.099 4.40476 165.018 6.32113C166.937 8.23747 168.292 10.645 168.935 13.28C169.577 15.9151 169.482 18.6762 168.66 21.2608C167.838 23.8454 166.32 26.1539 164.274 27.9338C162.227 29.7135 159.731 30.896 157.057 31.3515" stroke="#02EB76" stroke-width="3.5" stroke-linecap="round" stroke-linejoin="round"/>
<path d="M11.5023 42.4329C9.82349 42.444 8.27019 42.0462 6.84243 41.2394C5.43784 40.4093 4.31121 39.2974 3.46254 37.9039C2.63704 36.4869 2.21874 34.939 2.20765 33.2602L2.15845 25.8102C2.14736 24.1314 2.54525 22.5897 3.35212 21.1853C4.18216 19.7574 5.294 18.6308 6.68766 17.8054C8.10448 16.9566 9.65232 16.5266 11.3312 16.5155C12.8002 16.5058 14.166 16.765 15.4287 17.293C16.6912 17.7976 17.7688 18.5484 18.6615 19.5452C18.8025 19.7075 18.8738 19.9052 18.8753 20.1384C18.8768 20.3716 18.7851 20.6053 18.6001 20.8397L17.0718 22.4588C16.8865 22.6466 16.7006 22.7411 16.514 22.7423C16.2808 22.7439 16.0703 22.6403 15.8824 22.4317C14.7083 21.2036 13.2119 20.5955 11.3932 20.6075C10.5071 20.6134 9.68089 20.852 8.91449 21.3235C8.14809 21.7949 7.53434 22.4285 7.07323 23.2244C6.63543 24.0201 6.41954 24.8727 6.42554 25.7821L6.47475 33.232C6.48075 34.1414 6.70789 34.991 7.15616 35.7809C7.62774 36.5706 8.24981 37.1961 9.02237 37.6573C9.79492 38.1186 10.6242 38.3463 11.5103 38.3404C12.3964 38.3346 13.2227 38.1076 13.9892 37.6595C14.7558 37.2114 15.358 36.6011 15.796 35.8287C16.2339 35.0563 16.4499 34.2154 16.4439 33.3061L16.4326 31.5922L11.7458 31.6232C11.5359 31.6246 11.3606 31.5558 11.2197 31.4168C11.0789 31.2778 11.0078 31.1034 11.0064 30.8935L10.9898 28.3752C10.9884 28.1654 11.0572 27.99 11.1962 27.8492C11.3351 27.7084 11.5096 27.6373 11.7194 27.6359L19.0994 27.5871C19.5191 27.5844 19.8699 27.7336 20.1517 28.0349C20.4567 28.3127 20.6105 28.6615 20.6133 29.0812L20.6401 33.1384C20.6512 34.8173 20.2417 36.3707 19.4117 37.7986C18.6048 39.203 17.493 40.3296 16.0761 41.1785C14.6825 42.0038 13.1579 42.422 11.5023 42.4329ZM33.2354 42.2894C31.7198 42.2994 30.3183 41.9472 29.0311 41.2328C27.767 40.495 26.7577 39.4989 26.0033 38.2447C25.2488 36.9905 24.8667 35.6289 24.857 34.1599L24.8267 29.578C24.817 28.109 25.1811 26.7425 25.919 25.4784C26.6568 24.2144 27.6529 23.2167 28.9073 22.4856C30.1848 21.731 31.5814 21.3486 33.097 21.3386C34.6127 21.3286 36.0025 21.6925 37.2666 22.4304C38.5538 23.1447 39.5747 24.129 40.3291 25.3833C41.0836 26.6375 41.4657 27.9991 41.4754 29.4681L41.5057 34.0499C41.5154 35.5189 41.1513 36.8855 40.4135 38.1496C39.6756 39.4136 38.6679 40.423 37.3904 41.1776C36.136 41.9088 34.751 42.2793 33.2354 42.2894ZM33.2086 38.2321C34.3511 38.2246 35.3162 37.8218 36.1038 37.0238C36.9145 36.2023 37.3161 35.2202 37.3085 34.0777L37.2783 29.4958C37.2707 28.3532 36.8563 27.3883 36.0349 26.6009C35.2367 25.79 34.2664 25.3883 33.1238 25.3959C31.9813 25.4034 31.0046 25.8179 30.1939 26.6394C29.4063 27.4375 29.0163 28.4078 29.0239 29.5503L29.0541 34.1322C29.0617 35.2747 29.4646 36.2515 30.2627 37.0623C31.0841 37.8497 32.066 38.2397 33.2086 38.2321ZM119.095 41.7223C117.416 41.7334 115.863 41.3356 114.435 40.5288C113.031 39.6987 111.904 38.5868 111.055 37.1933C110.23 35.7763 109.811 34.2284 109.8 32.5496L109.751 25.0996C109.74 23.4208 110.138 21.8791 110.945 20.4747C111.775 19.0468 112.887 17.9202 114.28 17.0948C115.697 16.246 117.245 15.816 118.924 15.8049C120.393 15.7952 121.759 16.0544 123.021 16.5824C124.284 17.087 125.362 17.8378 126.254 18.8346C126.395 18.9969 126.466 19.1946 126.468 19.4278C126.47 19.661 126.378 19.8947 126.193 20.1291L124.664 21.7482C124.479 21.936 124.293 22.0305 124.107 22.0317C123.874 22.0333 123.663 21.9297 123.475 21.7211C122.301 20.493 120.805 19.8849 118.986 19.8969C118.1 19.9028 117.274 20.1414 116.507 20.6129C115.741 21.0843 115.127 21.7179 114.666 22.5138C114.228 23.3095 114.012 24.1621 114.018 25.0715L114.067 32.5214C114.073 33.4308 114.301 34.2804 114.749 35.0703C115.22 35.86 115.843 36.4855 116.615 36.9467C117.388 37.408 118.217 37.6357 119.103 37.6298C119.989 37.624 120.815 37.397 121.582 36.9489C122.348 36.5008 122.951 35.8905 123.389 35.1181C123.827 34.3457 124.043 33.5048 124.037 32.5955L124.025 30.8816L119.338 30.9126C119.129 30.914 118.953 30.8452 118.812 30.7062C118.672 30.5672 118.6 30.3928 118.599 30.1829L118.582 27.6646C118.581 27.4548 118.65 27.2794 118.789 27.1386C118.928 26.9978 119.102 26.9267 119.312 26.9253L126.692 26.8765C127.112 26.8738 127.463 27.023 127.744 27.3243C128.049 27.6021 128.203 27.9509 128.206 28.3706L128.233 32.4278C128.244 34.1067 127.834 35.6601 127.004 37.088C126.198 38.4924 125.086 39.619 123.669 40.4679C122.275 41.2932 120.751 41.7114 119.095 41.7223ZM140.828 41.5788C139.312 41.5888 137.911 41.2366 136.624 40.5222C135.36 39.7844 134.35 38.7883 133.596 37.5341C132.842 36.2799 132.459 34.9183 132.45 33.4493L132.419 28.8674C132.41 27.3984 132.774 26.0319 133.512 24.7678C134.25 23.5038 135.246 22.5061 136.5 21.775C137.778 21.0204 139.174 20.638 140.69 20.628C142.205 20.618 143.595 20.9819 144.859 21.7198C146.147 22.4341 147.167 23.4184 147.922 24.6727C148.676 25.9269 149.058 27.2885 149.068 28.7575L149.098 33.3393C149.108 34.8083 148.744 36.1749 148.006 37.439C147.268 38.703 146.261 39.7124 144.983 40.467C143.729 41.1982 142.344 41.5687 140.828 41.5788ZM140.801 37.5215C141.944 37.514 142.909 37.1112 143.696 36.3132C144.507 35.4917 144.909 34.5096 144.901 33.3671L144.871 28.7852C144.863 27.6426 144.449 26.6777 143.628 25.8903C142.829 25.0794 141.859 24.6777 140.717 24.6853C139.574 24.6928 138.597 25.1073 137.787 25.9288C136.999 26.7269 136.609 27.6972 136.617 28.8397L136.647 33.4216C136.654 34.5641 137.057 35.5409 137.855 36.3517C138.677 37.1391 139.659 37.5291 140.801 37.5215Z" fill="#0B152C"/>
<path d="M54.9835 42.1457C53.3046 42.1568 51.7513 41.759 50.3235 40.9523C48.919 40.1221 47.7923 39.0102 46.9437 37.6167C46.1182 36.1998 45.6999 34.6518 45.6888 32.973L45.6396 25.5231C45.6285 23.8442 46.0264 22.3026 46.8332 20.8981C47.6633 19.4702 48.7751 18.3436 50.1688 17.5182C51.5856 16.6694 53.1334 16.2395 54.8123 16.2284C56.2813 16.2187 57.6471 16.4778 58.9098 17.0058C60.1723 17.5105 61.25 18.2612 62.1426 19.258C62.2836 19.4203 62.3549 19.618 62.3564 19.8512C62.358 20.0844 62.2662 20.3182 62.0812 20.5526L60.5529 22.1716C60.3676 22.3594 60.1817 22.4539 59.9951 22.4552C59.762 22.4567 59.5514 22.3531 59.3635 22.1445C58.1895 20.9164 56.6931 20.3083 54.8743 20.3204C53.9882 20.3262 53.162 20.5648 52.3956 21.0363C51.6292 21.5077 51.0155 22.1414 50.5543 22.9372C50.1165 23.733 49.9007 24.5855 49.9067 25.4949L49.9559 32.9448C49.9619 33.8542 50.189 34.7038 50.6373 35.4937C51.1089 36.2834 51.7309 36.9089 52.5035 37.3702C53.276 37.8314 54.1053 38.0591 54.9914 38.0533C55.8775 38.0474 56.7038 37.8204 57.4703 37.3723C58.2369 36.9242 58.8391 36.314 59.2771 35.5416C59.715 34.7691 59.931 33.9283 59.925 33.0189L59.9137 31.305L55.2269 31.336C55.017 31.3374 54.8417 31.2686 54.7008 31.1296C54.56 30.9906 54.4889 30.8162 54.4875 30.6064L54.4709 28.0881C54.4695 27.8782 54.5383 27.7029 54.6773 27.562C54.8163 27.4212 54.9907 27.3501 55.2005 27.3487L62.5805 27.3C63.0002 27.2972 63.351 27.4465 63.6328 27.7477C63.9378 28.0255 64.0916 28.3743 64.0944 28.794L64.1212 32.8513C64.1323 34.5301 63.7228 36.0835 62.8928 37.5114C62.0859 38.9158 60.9741 40.0425 59.5573 40.8913C58.1636 41.7166 56.639 42.1348 54.9835 42.1457ZM76.7135 41.5475C75.1979 41.5575 73.7964 41.1937 72.509 40.456C71.2449 39.7181 70.2356 38.7104 69.4809 37.4329C68.7263 36.1554 68.344 34.7588 68.334 33.2432L68.309 29.4657C68.299 27.9501 68.6628 26.5486 69.4005 25.2612C70.1382 23.9738 71.1342 22.9529 72.3884 22.1984C73.6659 21.4438 75.0625 21.0615 76.5781 21.0515C78.0938 21.0414 79.4836 21.4054 80.7477 22.1432C82.0351 22.8809 83.0561 23.8885 83.8107 25.166C84.5653 26.4436 84.9477 27.8401 84.9577 29.3558L84.9732 31.6992C84.9759 32.1189 84.8268 32.4813 84.5256 32.7864C84.2477 33.0681 83.8988 33.2103 83.4791 33.2131L72.5316 33.2854L72.5327 33.4603C72.5403 34.6028 72.9431 35.5795 73.7413 36.3904C74.5627 37.1778 75.5446 37.5678 76.6872 37.5602L82.2484 37.5235C82.4582 37.5221 82.6336 37.5909 82.7744 37.7299C82.9152 37.8688 82.9863 38.0433 82.9877 38.2531L83.0044 40.7714C83.0058 40.9813 82.937 41.1566 82.798 41.2974C82.659 41.4383 82.4846 41.5094 82.2747 41.5108L76.7135 41.5475ZM80.761 29.4535L80.7589 29.1387C80.7514 27.9961 80.3369 27.0311 79.5156 26.2437C78.7174 25.4329 77.747 25.0312 76.6045 25.0387C75.4619 25.0463 74.4853 25.4608 73.6746 26.2823C72.887 27.0803 72.497 28.0506 72.5045 29.1932L72.5066 29.508L80.761 29.4535ZM97.347 41.8659C95.8313 41.8759 94.4299 41.5238 93.1427 40.8094C91.8786 40.0715 90.8693 39.0755 90.1149 37.8213C89.3604 36.5671 88.9783 35.2055 88.9686 33.7365L88.9383 29.1546C88.9286 27.6856 89.2927 26.3191 90.0305 25.055C90.7684 23.7909 91.7645 22.7933 93.0189 22.0622C94.2964 21.3075 95.693 20.9252 97.2086 20.9152C98.7242 20.9052 100.114 21.2691 101.378 22.0069C102.665 22.7213 103.686 23.7056 104.441 24.9598C105.195 26.214 105.577 27.5756 105.587 29.0446L105.617 33.6265C105.627 35.0955 105.263 36.4621 104.525 37.7261C103.787 38.9902 102.78 39.9995 101.502 40.7542C100.248 41.4853 98.8626 41.8559 97.347 41.8659ZM97.3202 37.8087C98.4627 37.8011 99.4278 37.3984 100.215 36.6003C101.026 35.7788 101.428 34.7968 101.42 33.6542L101.39 29.0724C101.382 27.9298 100.968 26.9648 100.147 26.1774C99.3483 25.3666 98.378 24.9649 97.2354 24.9724C96.0929 24.98 95.1162 25.3945 94.3055 26.216C93.5179 27.014 93.1279 27.9843 93.1355 29.1269L93.1657 33.7088C93.1733 34.8513 93.5761 35.828 94.3743 36.6389C95.1957 37.4263 96.1776 37.8162 97.3202 37.8087Z" fill="#02EB76"/>
</svg>
