<?xml version="1.0" encoding="UTF-8" standalone="no"?>
<!-- Created with Inkscape (http://www.inkscape.org/) -->

<svg
   xmlns:dc="http://purl.org/dc/elements/1.1/"
   xmlns:cc="http://creativecommons.org/ns#"
   xmlns:rdf="http://www.w3.org/1999/02/22-rdf-syntax-ns#"
   xmlns:svg="http://www.w3.org/2000/svg"
   xmlns="http://www.w3.org/2000/svg"
   xmlns:sodipodi="http://sodipodi.sourceforge.net/DTD/sodipodi-0.dtd"
   xmlns:inkscape="http://www.inkscape.org/namespaces/inkscape"
   version="1.1"
   id="svg866"
   width="115mm"
   height="158mm"
   viewBox="0 0 434.64565 597.16535"
   sodipodi:docname="bollenhut.svg"
   inkscape:version="0.92.4 5da689c313, 2019-01-14">
  <metadata
     id="metadata872">
    <rdf:RDF>
      <cc:Work
         rdf:about="">
        <dc:format>image/svg+xml</dc:format>
        <dc:type
           rdf:resource="http://purl.org/dc/dcmitype/StillImage" />
        <dc:title></dc:title>
      </cc:Work>
    </rdf:RDF>
  </metadata>
  <defs
     id="defs870" />
  <sodipodi:namedview
     pagecolor="#ffffff"
     bordercolor="#666666"
     borderopacity="1"
     objecttolerance="10"
     gridtolerance="10"
     guidetolerance="10"
     inkscape:pageopacity="0"
     inkscape:pageshadow="2"
     inkscape:window-width="1366"
     inkscape:window-height="713"
     id="namedview868"
     showgrid="false"
     inkscape:zoom="0.91264504"
     inkscape:cx="95.86537"
     inkscape:cy="287.59164"
     inkscape:window-x="0"
     inkscape:window-y="31"
     inkscape:window-maximized="1"
     inkscape:current-layer="layer3"
     inkscape:document-units="mm"
     units="mm" />
  <g
     inkscape:groupmode="layer"
     id="layer6"
     inkscape:label="backgroundbox">
    <rect
       style="opacity:0.98999999;fill:#ffffff;fill-opacity:1;stroke:none;stroke-width:4.18855762;stroke-linecap:butt;stroke-linejoin:miter;stroke-miterlimit:4;stroke-dasharray:none;stroke-dashoffset:0;stroke-opacity:1"
       id="rect5970"
       width="434.64566"
       height="597.16534"
       x="0"
       y="4.8217148e-06" />
  </g>
  <g
     inkscape:groupmode="layer"
     id="layer1"
     inkscape:label="raster"
     style="display:inline"
     transform="translate(0,-1002.8347)" />
  <g
     inkscape:groupmode="layer"
     id="layer3"
     inkscape:label="vector"
     style="display:inline"
     transform="translate(0,-1002.8347)">
    <g
       id="g4744"
       transform="matrix(0.1970917,0,0,0.1970917,65.365272,901.74759)">
      <path
         id="path990"
         d="m 680.35547,1963.3926 c -0.99635,0.01 -2.03655,0.056 -3.12305,0.1465 -6.56823,0.5447 -8.11131,1.2432 -11.91211,5.3906 -6.08565,6.6406 -7.47213,13.1777 -6.96289,32.834 0.35985,13.8898 0.91772,17.738 3.2168,22.1445 3.91837,7.5101 10.0486,11.334 18.16992,11.334 6.97592,0 10.55141,-1.3324 15.38281,-5.7324 l 3,-2.7325 -0.01,6.5665 c -0.004,3.611 -0.63983,8.8465 -1.41407,11.6347 -3.12596,11.2569 -19.10114,13.7975 -28.91992,4.5996 -2.96062,-2.7734 -3.04072,-2.777 -4.89843,-0.2441 -1.64903,2.2484 -1.60679,2.8938 0.34179,5.0957 1.22736,1.3869 4.63307,3.6237 7.56641,4.9707 11.85012,5.4415 26.30737,1.6916 31.31445,-8.1231 2.51712,-4.934 2.68555,-7.8032 2.68555,-45.9824 v -40.7187 h -3.33399 c -2.84668,0 -3.33398,0.6101 -3.33398,4.1797 v 4.1796 l -2.62109,-3.3339 c -3.35804,-4.2691 -8.17398,-6.2605 -15.14844,-6.209 z m 1.34375,6.707 c 4.28942,0.1014 8.66828,1.9714 12.0918,5.707 l 4.33398,4.7286 v 18.1484 c 0,20.384 -1.2284,24.2721 -8.80859,27.8691 -8.7921,4.1722 -18.4322,0.8867 -21.96289,-7.4863 -2.91925,-6.923 -2.59122,-35.1599 0.4746,-40.8027 2.98975,-5.5028 8.35613,-8.2945 13.8711,-8.1641 z"
         style="display:inline;fill:#5b5a5a;fill-opacity:1;stroke-width:1.33333337"
         inkscape:connector-curvature="0" />
      <path
         id="path986"
         d="m 721.13095,2049.714 c -1.14827,-1.1483 -0.88324,-2.7914 1.06667,-6.6136 1.72274,-3.3768 2.59452,-7.7916 2.59452,-13.1388 v -8.0531 h 4 4 v 8.1529 c 0,6.3043 -0.80386,9.6298 -3.54524,14.6667 -3.60635,6.626 -5.38384,7.718 -8.11595,4.9859 z"
         style="display:inline;fill:#5b5a5a;fill-opacity:1;stroke-width:1.33333337"
         inkscape:connector-curvature="0" />
      <path
         id="path984"
         d="m 427.05859,1963.2461 c -8.77759,-0.01 -13.78298,2.1179 -18.66015,7.9141 -5.30423,6.3037 -6.89649,12.7874 -6.89649,28.082 0,8.1617 0.73406,16.0986 1.75977,19.0332 2.27253,6.5019 7.65698,12.853 12.79687,15.0918 9.34983,4.0725 25.86117,1.2161 31.375,-5.4277 1.51732,-1.8282 1.4736,-2.4874 -0.28125,-4.2422 -1.8811,-1.8811 -2.4653,-1.7916 -6.17773,0.9531 -6.23549,4.6101 -16.84348,5.0721 -22.84961,0.9941 -5.91367,-4.0153 -8.35759,-9.0605 -9.08008,-18.7363 l -0.57422,-7.666 h 21.01953 21.01954 l -0.74219,-9.8262 c -1.37352,-18.1611 -8.31542,-26.1599 -22.70899,-26.1699 z m -1.25976,6.5566 c 2.6816,-0.03 5.5112,0.6493 8.35351,2.1192 4.7905,2.4773 6.52653,5.5827 7.86914,14.0761 l 1.03907,6.5782 h -17.30469 -17.30469 l 0.89649,-5.6055 c 1.69689,-10.6118 8.40636,-17.0787 16.45117,-17.168 z"
         style="display:inline;fill:#5b5a5a;fill-opacity:1;stroke-width:1.33333337"
         inkscape:connector-curvature="0" />
      <path
         id="path980"
         d="m 492.79297,1935.2422 v 49.334 49.332 h 3.33203 c 2.66667,0 3.33398,-0.6654 3.33398,-3.332 0,-3.4295 1.82324,-4.4445 3.4004,-1.8926 0.48996,0.7928 2.7748,2.5897 5.07812,3.9941 5.62194,3.4278 16.13115,3.4022 21.80078,-0.055 2.35376,-1.4352 5.65442,-5.1826 7.33399,-8.3281 2.77948,-5.2052 3.05273,-7.4559 3.05273,-25.0527 0,-17.5967 -0.27325,-19.8474 -3.05273,-25.0527 -4.15796,-7.7868 -9.69509,-10.9334 -19.23438,-10.9434 -6.62592,0 -8.23397,0.5366 -12.33203,4.1348 l -4.71289,4.1367 v -18.1367 -18.1387 h -4 z m 24.04883,34.666 c 5.86993,0.014 11.2691,3.2198 14.04101,8.9414 1.88535,3.8916 2.46567,8.2886 2.51367,19.0586 0.0779,17.4974 -2.45096,25.3408 -9.20312,28.5449 -5.39553,2.5604 -9.36055,2.6164 -14.89648,0.2071 -7.64503,-3.3273 -8.50391,-6.0001 -8.50391,-26.4473 0,-20.5178 1.20006,-24.7882 7.95508,-28.2813 2.65992,-1.3755 5.4256,-2.0298 8.09375,-2.0234 z"
         style="display:inline;fill:#5b5a5a;fill-opacity:1;stroke-width:1.33333337"
         inkscape:connector-curvature="0" />
      <path
         id="path976"
         d="m 566.37856,2032.541 c -7.6636,-4.6724 -8.72488,-9.2598 -9.32286,-40.2992 l -0.53302,-27.6666 h 4.13472 4.13474 v 26.1318 c 0,29.0866 1.00452,33.6372 8.07133,36.5644 4.3784,1.8136 11.31044,0.9218 15.46745,-1.9899 6.11028,-4.2798 7.12788,-9.4062 7.12788,-35.9078 v -24.7985 h 3.33334 3.33333 v 34.6666 34.6667 h -3.33333 c -2.7246,0 -3.33334,-0.6512 -3.33334,-3.5657 v -3.5658 l -3,2.7325 c -4.81424,4.3849 -8.40189,5.7327 -15.24568,5.7273 -4.08605,0 -8.02593,-0.9834 -10.83456,-2.6958 z"
         style="display:inline;fill:#5b5a5a;fill-opacity:1;stroke-width:1.33333337"
         inkscape:connector-curvature="0" />
      <path
         id="path974"
         d="m 902.92035,2033.5005 c -1.46388,-1.0705 -2.20424,-2.997 -1.92151,-5 0.38784,-2.7477 1.19174,-3.2587 5.12663,-3.2587 3.93489,0 4.73879,0.511 5.12663,3.2587 0.40844,2.8936 -2.51768,6.7413 -5.12663,6.7413 -0.45301,0 -1.89532,-0.7836 -3.20512,-1.7413 z"
         style="display:inline;fill:#5b5a5a;fill-opacity:1;stroke-width:1.33333337"
         inkscape:connector-curvature="0" />
      <path
         id="path972"
         d="m 1122.1864,2033.3152 c -0.8794,-1.0596 -1.4029,-3.3096 -1.1632,-5 0.3601,-2.5405 1.2447,-3.0734 5.1023,-3.0734 3.9349,0 4.7388,0.511 5.1266,3.2587 0.7516,5.3248 -5.7685,8.7876 -9.0657,4.8147 z"
         style="display:inline;fill:#5b5a5a;fill-opacity:1;stroke-width:1.33333337"
         inkscape:connector-curvature="0" />
      <path
         id="path970"
         d="m 1293.7676,1963.2969 c -4.3906,0.043 -8.7235,0.8524 -11.6621,2.414 -5.44,2.8908 -10.6465,9.9296 -10.6465,14.3946 0,4.5368 6.2784,4.4776 7.4199,-0.07 2.4639,-9.817 18.4656,-13.5734 25.9473,-6.0918 2.0814,2.0814 2.6328,4.4472 2.6328,11.2988 v 8.666 l -10.334,0.029 c -18.7673,0.053 -27.0451,6.8497 -26.9531,22.1289 0.054,8.9372 1.7948,12.866 7.3769,16.6582 v 0 c 3.1123,2.1139 5.5973,2.5634 12.1797,2.1953 6.9586,-0.3892 9.1249,-1.1514 13.666,-4.8008 l 5.3985,-4.3359 v 4.0625 c 0,3.543 0.4685,4.0644 3.666,4.0644 h 3.666 l -0.4277,-27.668 c -0.4936,-31.9349 -1.6907,-36.8558 -9.9258,-40.7636 -3.165,-1.5019 -7.6133,-2.2266 -12.0039,-2.1836 z m 13.6914,35.9453 v 9.75 c 0,8.9001 -0.3192,10.0551 -3.666,13.248 -2.0167,1.9239 -5.3575,4.1361 -7.4219,4.916 v 0 c -11.1586,4.216 -20.4137,-2.4379 -19.0742,-13.7129 1.1299,-9.5101 8.7496,-14.1803 23.1621,-14.1953 z"
         style="display:inline;fill:#5b5a5a;fill-opacity:1;stroke-width:1.33333337"
         inkscape:connector-curvature="0" />
      <path
         id="path966"
         d="m 304.79214,1987.2418 v -46.6666 h 24 24 v 3.3333 3.3333 H 332.12547 311.4588 v 18 18 h 18 18 v 3.2947 3.2946 l -17.66666,0.372 -17.66667,0.3721 -0.36636,21.6666 -0.36636,21.6667 h -3.30031 -3.3003 z"
         style="display:inline;fill:#5b5a5a;fill-opacity:1;stroke-width:1.33333337"
         inkscape:connector-curvature="0" />
      <path
         id="path964"
         d="m 366.12547,1999.2418 v -34.6666 h 3.33333 c 2.82296,0 3.33334,0.6192 3.33334,4.0444 v 4.0445 l 4.7111,-4.7112 c 3.80903,-3.809 5.72384,-4.7111 10,-4.7111 4.90452,0 5.2889,0.2715 5.2889,3.7358 0,3.3718 -0.46543,3.7489 -4.77692,3.8711 -3.01719,0.085 -6.02754,1.2881 -8.17184,3.2643 -6.24624,5.7567 -7.05124,9.8384 -7.05124,35.7527 v 24.0428 h -3.33334 -3.33333 z"
         style="display:inline;fill:#5b5a5a;fill-opacity:1;stroke-width:1.33333337"
         inkscape:connector-curvature="0" />
      <path
         id="path962"
         d="m 466.12547,1999.2418 v -34.6666 h 3.33333 3.33334 v 34.6666 34.6667 h -3.33334 -3.33333 z"
         style="display:inline;fill:#5b5a5a;fill-opacity:1;stroke-width:1.33333337"
         inkscape:connector-curvature="0" />
      <path
         id="path960"
         d="m 620.79214,1999.2418 v -34.6666 h 4 c 3.5249,0 4,0.4592 4,3.8666 v 3.8667 l 4.53333,-4.5333 c 3.68131,-3.6813 5.56079,-4.5334 10,-4.5334 5.09925,0 5.46667,0.2511 5.46667,3.7358 0,3.3605 -0.47218,3.7491 -4.70078,3.869 -6.08522,0.1725 -10.3584,3.0529 -13.09992,8.8302 -1.79856,3.7902 -2.1993,9.1534 -2.1993,29.4332 v 24.7985 h -4 -4 z"
         style="display:inline;fill:#5b5a5a;fill-opacity:1;stroke-width:1.33333337"
         inkscape:connector-curvature="0" />
      <path
         id="path958"
         d="m 802.12547,1991.9415 v -41.967 l -3,1.1825 c -1.65,0.6504 -6.45,2.728 -10.66667,4.6169 l -7.66666,3.4343 v -3.8047 c 0,-3.9103 2.12152,-5.1971 23.66666,-14.3555 l 4.33334,-1.842 v 47.3513 47.3512 h -3.33334 -3.33333 z"
         style="display:inline;fill:#5b5a5a;fill-opacity:1;stroke-width:1.33333337"
         inkscape:connector-curvature="0" />
      <path
         id="path956"
         d="m 866.12547,1991.9255 v -41.9832 l -7.66667,3.4343 c -14.19216,6.3575 -13.66666,6.2808 -13.66666,1.9956 0,-3.5377 0.9098,-4.1981 13,-9.437 7.15,-3.0982 13.75,-5.9358 14.66666,-6.3058 1.31472,-0.5307 1.66667,9.3526 1.66667,46.8033 v 47.4758 h -4 -4 v -41.9832 z"
         style="display:inline;fill:#5b5a5a;fill-opacity:1;stroke-width:1.33333337"
         inkscape:connector-curvature="0" />
      <path
         id="path954"
         d="m 1014.1255,1992.7975 c 0,-22.6111 -0.3453,-41.4563 -0.7672,-41.8783 -0.422,-0.4219 -5.2602,1.2803 -10.7516,3.7828 l -9.98427,4.55 0.41819,-4.0844 c 0.38225,-3.7335 1.39192,-4.5148 11.75148,-9.0935 6.2334,-2.7551 12.3834,-5.4005 13.6667,-5.8788 2.1947,-0.818 2.3333,1.94 2.3333,46.4219 v 47.2914 h -3.3333 -3.3333 z"
         style="display:inline;fill:#5b5a5a;fill-opacity:1;stroke-width:1.33333337"
         inkscape:connector-curvature="0" />
      <path
         id="path952"
         d="m 1091.1055,1940.5762 c -4.3032,0 -4.5601,0.3708 -22,31.8828 -9.7052,17.5364 -17.6465,33.1377 -17.6465,34.668 0,2.6833 0.6395,2.7812 18,2.7812 h 18 v 12 12 h 4 4 v -12 -12 h 6 c 5.5111,0 6,-0.2703 6,-3.332 0,-3.0618 -0.4889,-3.334 -6,-3.334 h -6 v -31.334 -31.332 z m -4.7012,14.7773 c 0.8798,0.2261 1.0547,5.6523 1.0547,22.9258 v 24.9629 h -13.334 c -7.3333,0 -13.332,-0.3747 -13.332,-0.832 0,-0.9978 22.3373,-42.7095 24.8828,-46.4649 0.2847,-0.42 0.5255,-0.644 0.7285,-0.5918 z"
         style="display:inline;fill:#5b5a5a;fill-opacity:1;stroke-width:1.33333337"
         inkscape:connector-curvature="0" />
      <path
         id="path948"
         d="m 1175.4588,1987.1613 v -46.7471 l 4.9807,0.4138 4.9807,0.4138 13.3659,38.9021 c 7.3512,21.3962 13.7332,39.2695 14.1822,39.7185 0.449,0.449 5.1184,-11.657 10.3765,-26.9021 5.2581,-15.2452 11.4848,-33.2655 13.8371,-40.0453 l 4.2769,-12.3268 5,-0.01 5,-0.01 v 46.6667 46.6667 h -3.3135 -3.3135 l -0.3531,-39.4631 -0.3532,-39.4632 -13.8676,39.5323 c -18.2315,51.9723 -15.7802,51.9516 -33.9482,0.2878 l -13.5175,-38.4393 -0.3535,38.7729 -0.3535,38.7729 h -3.3132 -3.3132 z"
         style="display:inline;fill:#5b5a5a;fill-opacity:1;stroke-width:1.33333337"
         inkscape:connector-curvature="0" />
      <path
         id="path946"
         d="m 1334.1255,1999.2418 v -34.6666 h 4 c 3.5249,0 4,0.4592 4,3.8666 v 3.8667 l 4.5333,-4.5333 c 3.6813,-3.6813 5.5608,-4.5334 10,-4.5334 5.0993,0 5.4667,0.2511 5.4667,3.7358 0,3.3288 -0.4901,3.7496 -4.4988,3.8633 -6.393,0.1812 -9.7671,2.3882 -12.8302,8.3924 -2.3881,4.6812 -2.671,7.8535 -2.671,29.9554 v 24.7198 h -4 -4 z"
         style="display:inline;fill:#5b5a5a;fill-opacity:1;stroke-width:1.33333337"
         inkscape:connector-curvature="0" />
      <path
         id="path944"
         d="m 1371.4588,2030.6767 c 0,-1.8176 7.5241,-15.3834 17.1937,-31 l 17.1938,-27.7682 -16.5271,-0.3732 -16.527,-0.3731 v -3.2935 -3.2935 h 21.3333 c 20.8051,0 21.3333,0.07 21.3333,2.8091 0,1.545 -7.8,15.3945 -17.3333,30.7767 -9.5333,15.3822 -17.3333,28.2181 -17.3333,28.5242 0,0.3062 8.4,0.5566 18.6666,0.5566 h 18.6667 v 3.3334 3.3333 h -23.3333 -23.3334 z"
         style="display:inline;fill:#5b5a5a;fill-opacity:1;stroke-width:1.33333337"
         inkscape:connector-curvature="0" />
      <path
         id="path942"
         d="m 924.79214,1986.5752 v -3.3334 h 27.33333 27.33333 v 3.3334 3.3333 h -27.33333 -27.33333 z"
         style="display:inline;fill:#5b5a5a;fill-opacity:1;stroke-width:1.33333337"
         inkscape:connector-curvature="0" />
      <path
         id="path940"
         d="m 466.8497,1948.1155 c -1.39992,-1.0237 -2.12951,-2.9743 -1.85086,-4.9484 0.37118,-2.6296 1.23211,-3.2586 4.45996,-3.2586 3.34775,0 4.06739,0.5833 4.41324,3.577 0.52352,4.5315 -3.51532,7.1944 -7.02234,4.63 z"
         style="display:inline;fill:#5b5a5a;fill-opacity:1;stroke-width:1.33333337"
         inkscape:connector-curvature="0" />
      <path
         id="path938"
         d="m 1277.3369,1946.7382 c -1.6947,-4.4162 0,-6.8297 4.8069,-6.8297 4.276,0 4.6484,0.3205 4.6484,4 0,3.54 -0.4994,4.0481 -4.3425,4.4185 -2.9282,0.2822 -4.5934,-0.2353 -5.1128,-1.5888 z"
         style="display:inline;fill:#5b5a5a;fill-opacity:1;stroke-width:1.33333337"
         inkscape:connector-curvature="0" />
      <path
         id="path936"
         d="m 1305.3369,1946.7382 c -1.6947,-4.4162 0,-6.8297 4.8069,-6.8297 4.276,0 4.6484,0.3205 4.6484,4 0,3.54 -0.4994,4.0481 -4.3425,4.4185 -2.9282,0.2822 -4.5934,-0.2353 -5.1128,-1.5888 z"
         style="display:inline;fill:#5b5a5a;fill-opacity:1;stroke-width:1.33333337"
         inkscape:connector-curvature="0" />
      <path
         id="path934"
         d="m 448.125,1731.2422 c -24.41585,0 -41.61784,13.1768 -48.15234,36.8828 -3.53713,12.8322 -3.69009,61.3395 -0.22852,72.4512 5.11342,16.4141 16.42335,29.0823 30.21875,33.8476 9.13012,3.1538 32.02569,2.3269 40.39649,-1.459 9.10169,-4.1165 17.87985,-12.8499 22.36132,-22.248 5.85516,-12.2788 7.14204,-22.7092 6.4043,-51.918 -0.55002,-21.7766 -1.07178,-26.7402 -3.52734,-33.5566 -8.20075,-22.7643 -23.88913,-34 -47.47266,-34 z m 0,24.666 c 7.86692,0 8.87296,0.3445 13.1543,4.4941 7.62183,7.3874 9.14194,15.7597 8.61914,47.5059 -0.39607,24.0506 -0.72573,27.2849 -3.34961,32.9648 -1.76931,3.8301 -4.64154,7.3538 -7.33203,8.9942 -2.88338,1.7579 -6.74679,2.6973 -11.0918,2.6973 -8.96516,0 -14.70543,-3.6422 -18.42383,-11.6915 -2.62388,-5.6799 -2.95158,-8.9142 -3.34765,-32.9648 -0.5228,-31.7462 0.99535,-40.1185 8.61718,-47.5059 4.28134,-4.1496 5.28738,-4.4941 13.1543,-4.4941 z"
         style="display:inline;fill:#5b5a5a;fill-opacity:1;stroke-width:1.33333337"
         inkscape:connector-curvature="0" />
      <path
         id="path930"
         d="m 547.84019,1874.7116 c -17.96847,-5.8419 -29.32768,-19.3787 -31.72196,-37.8031 l -0.90967,-7 h 14.62002 14.62001 l 0.91177,6.8733 c 1.65398,12.4682 12.7415,19.5533 24.89911,15.9107 7.65471,-2.2934 10.03655,-7.177 9.4004,-19.2742 -0.32337,-6.1493 -8.47849,-13.012 -22.20107,-18.6826 -21.38934,-8.8388 -33.03194,-19.3699 -36.797,-33.2841 -2.08904,-7.7203 -0.8504,-21.7383 2.50067,-28.3007 3.47161,-6.7985 12.09397,-14.6755 20.13313,-18.3927 5.11384,-2.3645 8.66038,-2.8497 20.82987,-2.8497 13.35211,0 15.34565,0.3334 22.24213,3.7201 12.6924,6.2329 20.83224,17.9687 22.09096,31.85 l 0.70395,7.7632 h -14.0368 -14.0368 l -0.92936,-4.9539 c -2.04007,-10.8745 -7.34889,-15.773 -16.82503,-15.5245 -9.67258,0.2536 -14.54238,5.8699 -14.54238,16.7717 0,4.5944 0.81036,6.2238 5.14732,10.3495 2.83102,2.6931 8.68102,6.3002 13,8.0157 23.98149,9.526 36.05056,19.3987 39.89941,32.6383 2.86577,9.8579 2.21612,25.9317 -1.34348,33.2411 -3.44237,7.0687 -10.54419,13.9008 -17.9174,17.2369 -7.77501,3.5179 -31.07427,4.5117 -39.7378,1.695 z"
         style="display:inline;fill:#5b5a5a;fill-opacity:1;stroke-width:1.33333337"
         inkscape:connector-curvature="0" />
      <path
         id="path928"
         d="m 655.84019,1874.7116 c -18.01445,-5.8569 -29.37548,-19.4402 -31.61827,-37.8031 l -0.85497,-7 h 14.54083 14.54081 l 0.87685,6.61 c 1.55087,11.6911 11.29991,18.9687 22.57627,16.8533 6.57071,-1.2327 10.15295,-4.5752 11.57096,-10.7966 2.83096,-12.4207 -2.94756,-19.7158 -22.08519,-27.8817 -21.63221,-9.2302 -33.0161,-19.5326 -36.7238,-33.2349 -2.0907,-7.7266 -0.85345,-21.7431 2.49879,-28.3077 3.47161,-6.7985 12.09397,-14.6755 20.13313,-18.3927 5.11384,-2.3645 8.66038,-2.8497 20.82987,-2.8497 13.35211,0 15.34565,0.3334 22.24213,3.7201 12.6924,6.2329 20.83224,17.9687 22.09096,31.85 l 0.70395,7.7632 h -14.0368 -14.0368 l -0.92936,-4.9539 c -0.51115,-2.7247 -1.72673,-6.4959 -2.70131,-8.3805 -4.78849,-9.2599 -20.63166,-9.8261 -26.05526,-0.9312 -3.69516,6.0603 -3.43692,14.4222 0.59182,19.1633 3.32743,3.9158 6.21616,5.5496 27.62523,15.6244 21.01555,9.8896 29.17211,21.4868 29.17211,41.4779 0,12.2611 -2.88572,20.5303 -9.56696,27.4148 -8.28635,8.5386 -15.25108,11.0611 -31.76638,11.5052 -9.19789,0.2474 -15.92722,-0.25 -19.61861,-1.4502 z"
         style="display:inline;fill:#5b5a5a;fill-opacity:1;stroke-width:1.33333337"
         inkscape:connector-curvature="0" />
      <path
         id="path926"
         d="m 767.89104,1874.7336 c -16.52052,-5.397 -27.78521,-18.8286 -31.84164,-37.9667 -2.54138,-11.9902 -2.54138,-53.7271 0,-65.7173 3.55436,-16.7694 11.07506,-27.7541 23.68202,-34.5899 8.27941,-4.4893 8.62168,-4.5515 25.06072,-4.5515 14.66572,0 17.50338,0.3783 23.63606,3.151 12.82095,5.7967 21.54578,19.0149 23.80818,36.0697 l 0.8993,6.7794 h -14.17177 c -10.8412,0 -14.17177,-0.4132 -14.17177,-1.758 0,-0.9669 -0.93156,-4.8949 -2.07015,-8.729 -2.58705,-8.7115 -7.4926,-12.1697 -17.26319,-12.1697 -8.51744,0 -14.2804,3.4483 -18.27954,10.9377 -2.93422,5.495 -3.05379,6.9471 -3.05379,37.0857 0,30.842 0.0557,31.475 3.33333,37.8427 4.26599,8.2879 9.90323,11.4573 20.37875,11.4573 4.34235,0 9.4844,-0.895 11.68747,-2.0343 l 3.93378,-2.0342 v -13.2989 -13.2991 h -10 -10 v -10.6667 -10.6667 h 24.6917 24.6917 l -0.35837,30.2163 -0.35836,30.2161 -7.33333,4.9135 c -12.17179,8.1554 -17.48715,9.6876 -35.33334,10.1854 -11.00438,0.307 -17.7384,-0.1216 -21.56776,-1.3726 z"
         style="display:inline;fill:#5b5a5a;fill-opacity:1;stroke-width:1.33333337"
         inkscape:connector-curvature="0" />
      <path
         id="path924"
         d="m 932.99172,1873.9124 c -7.8427,-2.8213 -9.15288,-3.6554 -16.64812,-10.5989 -6.90086,-6.3928 -11.69409,-16.1894 -12.55241,-25.6552 l -0.70276,-7.75 h 14.12477 14.12476 l 0.80126,5 c 2.12312,13.2489 7.42481,18.2229 19.49501,18.2901 6.73059,0.038 8.24785,-0.4463 11.45789,-3.6537 3.2092,-3.2066 3.70002,-4.7412 3.70002,-11.5689 0,-12.3297 -1.63512,-13.8634 -27.53922,-25.8307 -22.73857,-10.5049 -32.18454,-22.4733 -32.28282,-40.9035 -0.0879,-16.4713 6.5161,-27.5001 21.00001,-35.0706 7.79591,-4.0749 8.83119,-4.2627 23.48869,-4.2627 14.04923,0 15.89164,0.2974 22,3.5514 12.9269,6.8864 20.73476,18.1818 22.66035,32.7819 l 0.92323,7 h -14.61623 -14.61623 l -0.74457,-5.5512 c -0.96029,-7.1595 -4.65169,-12.0434 -10.61288,-14.0414 -9.92488,-3.3265 -19.44887,2.8104 -20.63047,13.2934 -1.0215,9.0628 4.02507,13.8556 25.51826,24.2348 19.7095,9.5179 26.091,14.8195 31.26672,25.9757 2.81118,6.0594 3.43742,9.3804 3.41097,18.0887 -0.0564,18.5608 -7.86621,30.556 -23.76805,36.5056 -10.12532,3.7884 -28.96624,3.8677 -39.25818,0.1653 z"
         style="display:inline;fill:#5b5a5a;fill-opacity:1;stroke-width:1.33333337"
         inkscape:connector-curvature="0" />
      <path
         id="path922"
         d="m 1180.9277,1731.2422 c -18.2107,0 -28.9642,9.8811 -34.4277,31.6367 -2.9727,11.8371 -3.3691,67.3526 -0.5684,79.5762 3.742,16.3318 10.8259,27.0791 20.8496,31.6328 7.3154,3.3228 23.3958,3.3131 30.7325,-0.019 2.9637,-1.3463 7.043,-4.4122 9.0644,-6.8145 10.3936,-12.3521 12.8884,-24.8277 12.8574,-64.2891 -0.026,-33.0581 -1.4527,-43.3912 -7.5371,-54.5703 -6.6787,-12.271 -15.4927,-17.1523 -30.9707,-17.1523 z m -0.6972,15.0117 c 1.0151,-0.036 2.0746,0 3.1816,0.1172 7.023,0.7176 13.4814,6.7385 16.1719,15.0781 2.2716,7.0409 3.2661,68.7612 1.2598,78.1602 -2.1416,10.0315 -6.405,18.0688 -10.7891,20.3359 -7.4555,3.8554 -17.2756,1.5471 -21.6192,-5.082 -5.0822,-7.7563 -6.6402,-17.107 -7.3007,-43.793 -1.1528,-46.5754 3.8686,-64.2768 19.0957,-64.8164 z"
         style="display:inline;fill:#5b5a5a;fill-opacity:1;stroke-width:1.33333337"
         inkscape:connector-curvature="0" />
      <path
         id="path918"
         d="m 1379.459,1731.2559 c -11.6037,0 -17.2843,2.1801 -24.166,9.2734 -7.7646,8.0031 -11.2721,18.0163 -13.3262,38.0449 -1.835,17.8916 -0.6582,54.0152 2.1387,65.6934 3.7389,15.6114 10.7863,25.893 20.6875,30.1816 6.2337,2.7002 22.6345,2.7309 29.041,0.055 10.2458,-4.2798 17.1507,-14.3555 21.1875,-30.918 3.1749,-13.0258 3.1877,-66.473 0.019,-79.3554 -5.7591,-23.4171 -16.0709,-32.9746 -35.582,-32.9746 z m 0.5918,14.7832 c 2.5837,0.085 5.1915,0.7236 7.5918,1.9648 8.6762,4.4866 13.1168,23.228 13.0918,55.2383 -0.027,33.4747 -4.3222,52.0373 -13.0918,56.5723 -2.228,1.1521 -6.0314,2.0878 -8.4512,2.0878 -16.0507,-0.018 -22.0764,-19.4318 -20.6894,-66.6601 0.7346,-25.0163 2.4377,-34.9157 7.2753,-42.2988 3.0178,-4.6058 8.5893,-7.0915 14.2735,-6.9043 z"
         style="display:inline;fill:#5b5a5a;fill-opacity:1;stroke-width:1.33333337"
         inkscape:connector-curvature="0" />
      <path
         id="path914"
         d="m 304.79214,1803.9085 v -71.3334 h 39.33333 39.33333 v 12 12 h -25.37096 -25.37096 l 0.37096,18.3334 0.37096,18.3333 22.33334,0.3656 22.33333,0.3655 v 11.2689 11.2689 l -22.33333,0.3655 -22.33334,0.3656 -0.35933,29 -0.35933,29 h -13.974 -13.974 z"
         style="display:inline;fill:#5b5a5a;fill-opacity:1;stroke-width:1.33333337"
         inkscape:connector-curvature="0" />
      <path
         id="path912"
         d="m 854.12547,1803.9085 v -71.3334 h 14.66667 14.66666 v 71.3334 71.3333 h -14.66666 -14.66667 z"
         style="display:inline;fill:#5b5a5a;fill-opacity:1;stroke-width:1.33333337"
         inkscape:connector-curvature="0" />
      <path
         id="path910"
         d="m 1044.7921,1868.7635 c 0,-6.3333 0.5392,-7.192 24.0688,-38.3334 13.2378,-17.5202 25.8708,-35.5047 28.0733,-39.9655 7.2805,-14.745 6.4718,-29.6215 -2.1198,-38.9966 -4.1809,-4.5621 -5.0092,-4.8929 -12.2531,-4.8929 -12.9381,0 -19.9054,6.9943 -21.4008,21.4834 l -0.7414,7.1833 h -8.6627 -8.6627 l 0.6721,-8.3725 c 1.102,-13.729 8.9379,-26.0315 20.3597,-31.9652 6.4223,-3.3365 22.7582,-4.6519 30.7945,-2.4797 19.45,5.2574 29.2674,28.2079 22.0949,51.6524 -3.8253,12.5039 -9.6823,21.9194 -31.929,51.3288 l -19.0396,25.1696 h 29.3729 29.373 v 7.3333 7.3333 h -40 -40.0001 z"
         style="display:inline;fill:#5b5a5a;fill-opacity:1;stroke-width:1.33333337"
         inkscape:connector-curvature="0" />
      <path
         id="path908"
         d="m 1242.1255,1869.0222 c 0,-5.9861 0.887,-7.4011 23.6119,-37.6667 12.9866,-17.2959 25.6986,-35.501 28.2489,-40.4558 8.0341,-15.6087 7.0178,-31.1796 -2.6387,-40.4311 -3.5166,-3.3691 -5.0845,-3.8935 -11.643,-3.8935 -12.5246,0 -19.8958,7.7264 -21.3067,22.3334 l -0.6117,6.3333 h -8.6822 -8.6822 l 0.7089,-7.8179 c 1.2736,-14.0459 8.0708,-25.1746 19.4687,-31.8749 5.6298,-3.3096 7.4048,-3.6405 19.5261,-3.6405 11.2244,0 14.2092,0.4684 18.871,2.9613 17.7845,9.5103 22.9854,34.4284 12.1024,57.9834 -5.5554,12.0238 -10.5139,19.3766 -30.8338,45.722 -8.4842,11 -15.4364,20.45 -15.4494,21 -0.013,0.55 12.8765,1 28.6431,1 h 28.6667 v 7.3333 7.3333 h -40 -40 z"
         style="display:inline;fill:#5b5a5a;fill-opacity:1;stroke-width:1.33333337"
         inkscape:connector-curvature="0" />
      <path
         id="path906"
         d="m 1516.7922,1749.6804 c -9.0359,-7.6916 -30.2076,-21.0461 -48.0064,-30.281 -167.5873,-86.9534 -596.41021,-185.6395 -933.327,-214.789 -82.49557,-7.1373 -177.03784,-9.9824 -226.66666,-6.8211 -62.26159,3.9659 -98.90447,12.6289 -113.68696,26.8773 l -6.67035,6.4294 -2.51827,-2.9271 c -8.67658,-10.0851 -10.13439,-20.8321 -3.80388,-28.0422 13.78774,-15.7033 57.34315,-26.9824 128.01279,-33.1501 25.22836,-2.2018 132.99989,-2.1866 169.33333,0.024 378.08308,23.0021 843.0251,133.7897 1001.2082,238.5705 25.0276,16.5783 42.443,35.5453 41.2129,44.8846 l -0.4211,3.1972 z"
         style="display:inline;fill:#ee7f04;fill-opacity:1;stroke-width:1.33333337"
         inkscape:connector-curvature="0" />
      <path
         id="path904"
         d="m 1426.1255,1647.1146 c -70.6719,-33.6376 -192.9912,-74.3803 -318,-105.9209 -19.8,-4.9956 -36.1062,-9.1347 -36.2361,-9.198 -0.9404,-0.4579 4.2362,-23.8871 7.452,-33.728 7.9941,-24.4628 20.3645,-44.5362 39.7883,-64.5646 26.6168,-27.4451 61.1479,-46.0146 101.6625,-54.67 16.4666,-3.5179 51.9738,-4.7896 70.2057,-2.5145 78.9582,9.8529 145.7067,62.3894 167.6928,131.9878 10.1881,32.2512 10.0271,67.6553 -0.454,99.7283 -5.5873,17.0979 -19.1492,43.0098 -22.5085,43.006 -0.5148,-5e-4 -4.836,-1.8573 -9.6027,-4.1261 z"
         style="display:inline;fill:#ee7f04;fill-opacity:1;stroke-width:1.33333337"
         inkscape:connector-curvature="0" />
      <path
         id="path902"
         d="m 1017.4588,1519.6562 c -81.32393,-18.4091 -181.95988,-36.9498 -273.54737,-50.397 -24.21011,-3.5547 -94.48953,-12.6824 -97.65659,-12.6834 -1.5428,-6e-4 -1.72756,-2.6295 -1.05426,-15.0007 2.52956,-46.4779 20.0813,-84.9376 53.84452,-117.9848 69.25832,-67.7897 187.09222,-76.7284 271.74704,-20.6144 45.81676,30.3699 76.57116,76.0683 85.42396,126.9326 3.2814,18.8534 2.0582,49.4507 -2.6823,67.0971 -3.8576,14.3595 -8.3984,27.2743 -9.828,27.952 -0.5025,0.2383 -12.3137,-2.1474 -26.247,-5.3014 z"
         style="display:inline;fill:#ee7f04;fill-opacity:1;stroke-width:1.33333337"
         inkscape:connector-curvature="0" />
      <path
         id="path900"
         d="m 595.4588,1451.0579 c -77.74962,-7.8017 -137.39688,-10.9498 -209,-11.0309 l -59,-0.067 0.0233,-12.6925 c 0.0631,-34.3561 10.57776,-66.8448 31.98445,-98.8264 9.14968,-13.6696 35.91328,-39.4609 51.64391,-49.7678 49.83461,-32.652 110.61058,-44.094 169.62766,-31.9348 34.18586,7.0432 69.96192,24.3974 95.81531,46.4778 l 9.33735,7.9746 -9.5652,10.0254 c -33.63634,35.2543 -53.4283,79.3989 -55.17444,123.0627 -0.40407,10.1039 -1.10014,18.5393 -1.54683,18.7454 -0.44668,0.2061 -11.31216,-0.6789 -24.14549,-1.9667 z"
         style="display:inline;fill:#ee7f04;fill-opacity:1;stroke-width:1.33333337"
         inkscape:connector-curvature="0" />
      <path
         id="path898"
         d="m 1159.0527,1045.6543 c -43.0738,0.082 -82.742,16.2864 -112.2968,46.1758 -31.4913,31.8478 -49.60508,80.5463 -44.8946,120.6953 2.7623,23.5435 9.3882,40.2367 30.9825,78.0488 15.2137,26.6397 27.4382,50.9133 33.8691,67.2539 5.6228,14.2871 12.9616,42.0922 15.416,58.4063 l 1.6543,10.9922 11.4121,-10.8028 c 30.3137,-28.6944 52.6823,-42.4539 111.0117,-68.2793 36.7351,-16.2645 48.7751,-23.0393 63.3438,-35.6484 14.2316,-12.3173 26.466,-30.2371 34.0859,-49.9219 23.098,-59.6707 11.3462,-123.2471 -31.0742,-168.1054 -26.1132,-27.614 -63.2721,-45.5618 -100.041,-48.3204 -4.5214,-0.3392 -9.0129,-0.5026 -13.4688,-0.4941 z m -1.7754,94.8848 c 37.1028,-0.3972 67.3363,36.0864 55.6875,74.4375 -5.3395,17.579 -21.2686,33.571 -38.0097,38.1621 -21.5817,5.9187 -42.3591,0.7464 -57.3926,-14.2871 -30.8111,-30.8111 -17.9622,-83.1887 23.4961,-95.7813 5.4787,-1.6641 10.9183,-2.4745 16.2187,-2.5312 z"
         style="display:inline;fill:#727272;fill-opacity:1;stroke-width:1.33333337"
         inkscape:connector-curvature="0" />
      <path
         id="path891"
         d="m 1002.1255,1295.0755 c -2.5667,-2.2319 -10.88926,-8.1943 -18.4946,-13.2499 -71.76198,-47.7028 -166.51858,-54.1689 -243.50543,-16.6165 -8.06667,3.9347 -19.14763,10.1308 -24.62435,13.7691 l -9.95766,6.6151 -9.37567,-8.6192 c -19.06448,-17.5262 -53.05309,-37.2736 -80.04232,-46.5047 -5.86667,-2.0065 -11.07751,-4.0036 -11.57964,-4.4379 -1.16288,-1.0058 3.25332,-23.0573 6.93441,-34.6257 4.34138,-13.6436 16.54094,-36.9642 25.9171,-49.543 10.3854,-13.9328 32.64616,-35.5497 46.22808,-44.8909 74.89368,-51.5094 180.74034,-50.7394 254.89884,1.8543 11.71149,8.3058 36.54946,32.3352 42.6475,41.259 l 3.71298,5.4335 -3.40759,13.1151 c -5.49143,21.1354 -6.96257,41.1985 -4.37221,59.6276 2.86073,20.3528 8.3243,36.1037 21.03689,60.6471 5.79257,11.1833 10.10857,20.3089 9.59117,20.2791 -0.5175,-0.03 -3.0409,-1.8803 -5.6075,-4.1121 z"
         style="display:inline;fill:#ee7f04;fill-opacity:1;stroke-width:1.33333337"
         inkscape:connector-curvature="0" />
    </g>
  </g>
  <g
     inkscape:groupmode="layer"
     id="layer2"
     inkscape:label="skyline"
     style="display:inline">
    <path
       style="display:inline;fill:#000000;fill-opacity:1;stroke-width:0.45589393"
       d="m 227.87305,433.56836 -1.32032,5.60742 -4.60546,19.78516 -0.0449,0.13672 v -0.13672 l -1.0039,4.83203 -1.09375,4.69531 -0.0449,0.13672 v 10.34961 l 0.41015,0.41016 0.63672,0.63867 v 7.88672 H 189.625 v -5.92578 l -0.13672,-0.2754 -2.78125,-5.78906 -0.0918,-0.18164 -0.82031,-1.82422 v -1.86914 h 1.04883 v -1.36719 h -1.04883 v -1.55078 h -1.36719 v 1.55078 h -1.04882 v 1.36719 h 1.04882 v 2.05078 l -1.0039,1.73242 -3.55469,6.01954 -0.18359,0.31836 v 1.91406 h -22.38477 l -0.41016,0.68359 -1.64062,2.87305 h -2.55273 l -0.36524,0.77539 -1.82422,3.7832 -0.13672,0.27344 v 26.94336 h -8.38671 v -4.69531 l 0.18164,-0.18164 h 2.55273 v -11.8086 h 1.91406 l -6.10742,-9.52734 -5.28906,6.0625 h -2.78125 v -4.5586 h -4.5586 v -4.55859 h -4.55859 v -4.46875 h -4.55859 v -4.10351 h -7.29492 v 4.10351 h -4.5586 v 4.5586 h -4.55859 v 4.56054 h -4.560549 v 4.5586 h -4.421875 -0.08984 v 20.2871 h -6.337891 v -28.49414 l 0.31836,-0.36523 0.365234,-0.41016 v -10.75781 l -0.04492,-0.13672 -1.458984,-7.66015 -1.09375,-5.65235 -1.50586,5.42578 -0.18164,0.5918 -1.001953,-4.24023 -0.136719,-0.5918 -0.548828,-0.27344 -1.046875,-0.54687 -0.867188,-11.67188 h -2.734375 l -0.822265,11.67188 -1.09375,0.5 -0.638672,0.27343 -0.136719,0.68555 -0.820313,3.91992 -1.322265,-4.28515 -1.275391,4.28515 -2.142578,7.02149 -0.04687,0.18164 v 11.16992 l 0.410156,0.41016 0.410157,0.41015 v 28.35547 H 0 v 1.36914 76.33917 l 434.64567,3.9e-4 v -76.38409 -1.36914 l -53.59097,-3.9e-4 v -25.89453 l -0.41016,-0.41016 -1.04883,-1.04883 V 463.1543 l -0.18164,-0.31836 -4.56054,-8.20703 v -6.88282 h -3.60157 v 6.79297 l -4.92383,8.25196 -0.18164,0.31836 v 24.48242 h -2.09765 l -2.2793,-7.20313 -1.00195,-6.5664 v -1.00196 h 1.04883 v -1.36719 h -1.04883 v -1.55078 h -1.36914 v 1.55078 h -1.04688 v 1.36719 h 1.04688 v 1.00196 l -0.95703,6.61132 -2.05079,7.11133 h -2.50781 v -24.61719 l -0.22851,-0.32031 -4.60352,-7.38476 v -7.38477 h -3.60156 v 7.29297 l -4.60547,7.33984 -0.22656,0.32032 v 29.13086 l -0.91211,0.9121 -0.41016,0.41016 v 19.00977 c -2.68978,-1.778 -5.60891,-3.09865 -8.70898,-3.96485 h -0.0449 -0.0449 c -2.1427,-0.5927 -4.33124,-0.86718 -6.51953,-0.86718 -5.37955,-0.045 -10.62208,1.55104 -15.08984,4.46874 -2.68978,-2.5074 -8.79826,-6.65624 -19.375,-6.65624 -10.62233,0 -17.32574,4.14815 -20.28906,6.56445 -2.27946,-1.6868 -7.06492,-4.28516 -14.76954,-4.28516 -5.42514,0 -10.76003,1.45856 -15.41015,4.28516 v -9.39063 l -0.41016,-0.41015 -0.59179,-0.59375 v -8.29688 l -0.41016,-0.41015 -2.32617,-2.32618 v -10.39453 l 0.68359,-0.68359 0.41016,-0.41016 V 468.125 l -0.0449,-0.18359 -1.00196,-4.05664 -1.18554,-4.60547 -0.0469,-0.13672 -4.87695,-20.01367 z m 61.68359,74.85742 c 1.73239,0 3.5098,0.13656 5.24219,0.41016 l -5.88086,9.98437 -6.19922,-9.71093 c 2.23388,-0.45595 4.55842,-0.6836 6.83789,-0.6836 z m 8.79883,1.18555 c 5.1972,1.55 8.1155,4.23988 9.16406,5.33398 l -2.91797,3.875 z m -2.05274,0.31836 7.29493,10.66797 h -13.58594 z m -17.0957,0.13672 -5.92578,8.79882 -2.78125,-3.91992 c 2.55301,-2.1882 5.51578,-3.8303 8.70703,-4.8789 z m 2.09766,0.18164 6.61133,10.34961 h -13.58594 z m 42.71679,0.32031 c 1.55004,0.0457 3.10029,0.18217 4.6504,0.54687 l -3.91993,7.52149 -4.19531,-7.83984 c 1.13973,-0.13707 2.32511,-0.22852 3.46484,-0.22852 z m -69.47851,0.13672 c 1.23092,0 2.50864,0.091 3.78515,0.27344 l -4.51367,7.84179 -4.46875,-7.61328 c 1.68682,-0.3192 3.46488,-0.50195 5.19727,-0.50195 z m 62.77734,0.82031 -4.65039,7.24805 -2.73437,-3.69141 c 2.23388,-1.5957 4.74058,-2.82714 7.38476,-3.55664 z m -55.84765,0.0918 c 2.46183,0.6383 4.69591,1.77744 6.65625,3.37304 l -2.64453,3.875 z m 57.67187,0.45508 4.55859,8.52539 h -10.02929 z m -73.08008,0.0449 -4.19531,6.92969 -2.82617,-3.32813 c 2.1427,-1.5501 4.51406,-2.78096 7.02148,-3.60156 z m 13.63086,0.0918 4.65039,8.38868 h -9.4375 z m 72.57813,0 c 2.55301,1.003 4.92304,2.32502 7.11133,4.01172 l -2.64258,2.78125 z m -2.09766,0.0918 5.4707,8.29688 h -9.8457 z m -82.19726,0.18164 4.83203,8.11524 h -9.75586 z m 21.33593,3.9668 2.96289,4.14844 h -5.74414 z m 39.38867,0 3.05469,4.14844 h -6.19922 z m -70.93554,0.54687 3.05469,3.60157 h -3.05469 z m 102.93945,0.45508 v 3.14649 h -2.96289 z"
       id="path1175"
       inkscape:connector-curvature="0"
       sodipodi:nodetypes="ccccccccccccccccccccccccccccccccccccccccccccccccccccccccccccccccccccccccccccccccccccccccccccccccccccccccccccccccccccccccccccccccccccccccccccccccccccccscscccccccccccccccccscccscccccccccccccccccccccscccscccccccccccccccccccccccccccccccccccccccccccccccc" />
  </g>
  <g
     inkscape:groupmode="layer"
     id="layer4"
     inkscape:label="gelb"
     style="display:inline" />
  <g
     inkscape:groupmode="layer"
     id="layer5"
     inkscape:label="rot" />
</svg>
